<svg width="1590" height="544" viewBox="0 0 1590 544" fill="none" xmlns="http://www.w3.org/2000/svg">
<g clip-path="url(#clip0_1671_70391)">
<path d="M1576.58 112.752C1584.88 127.138 1584.88 144.862 1576.58 159.248L1535.42 230.532C1527.12 244.917 1511.77 253.779 1495.16 253.779L1412.84 253.779C1396.23 253.779 1380.88 244.917 1372.58 230.532L1331.42 159.248C1323.12 144.862 1323.12 127.138 1331.42 112.752L1372.58 41.4684C1380.88 27.0826 1396.23 18.2205 1412.84 18.2205L1495.16 18.2205C1511.77 18.2205 1527.12 27.0826 1535.42 41.4684L1576.58 112.752Z" fill="url(#paint0_linear_1671_70391)" fill-opacity="0.3"/>
<path d="M146.003 91.5769C148.476 95.8609 148.476 101.139 146.003 105.423L133.747 126.651C131.274 130.935 126.703 133.574 121.756 133.574L97.2441 133.574C92.2973 133.574 87.7263 130.935 85.253 126.651L72.997 105.423C70.5237 101.139 70.5237 95.8609 72.997 91.5769L85.253 70.349C87.7263 66.065 92.2973 63.426 97.2441 63.426L121.756 63.426C126.703 63.426 131.274 66.065 133.747 70.349L146.003 91.5769Z" fill="url(#paint1_linear_1671_70391)" fill-opacity="0.3"/>
<path d="M557.078 500.681C540.443 505.139 522.694 500.383 510.516 488.205L450.173 427.862C437.995 415.684 433.239 397.935 437.697 381.299L459.784 298.87C464.241 282.235 477.235 269.241 493.87 264.784L576.3 242.697C592.935 238.239 610.684 242.995 622.862 255.173L683.205 315.516C695.383 327.694 700.139 345.443 695.681 362.078L673.594 444.508C669.137 461.143 656.143 474.137 639.508 478.594L557.078 500.681Z" fill="url(#paint2_linear_1671_70391)" fill-opacity="0.3"/>
</g>
<defs>
<linearGradient id="paint0_linear_1671_70391" x1="1590" y1="136" x2="1318" y2="136" gradientUnits="userSpaceOnUse">
<stop stop-color="#7B00FF"/>
<stop offset="1" stop-color="#7B00FF" stop-opacity="0"/>
</linearGradient>
<linearGradient id="paint1_linear_1671_70391" x1="150" y1="98.5" x2="69" y2="98.5" gradientUnits="userSpaceOnUse">
<stop stop-color="#7B00FF"/>
<stop offset="1" stop-color="#7B00FF" stop-opacity="0"/>
</linearGradient>
<linearGradient id="paint2_linear_1671_70391" x1="530.196" y1="507.884" x2="603.183" y2="235.493" gradientUnits="userSpaceOnUse">
<stop stop-color="#7B00FF"/>
<stop offset="1" stop-color="#7B00FF" stop-opacity="0"/>
</linearGradient>
<clipPath id="clip0_1671_70391">
<rect width="1590" height="544" fill="white"/>
</clipPath>
</defs>
</svg>
