<svg width="173" height="173" viewBox="0 0 173 173" fill="none" xmlns="http://www.w3.org/2000/svg">
<path d="M135 5.5H38C20.0507 5.5 5.5 20.0508 5.5 38V135C5.5 152.949 20.0507 167.5 38 167.5H135C152.949 167.5 167.5 152.949 167.5 135V38C167.5 20.0507 152.949 5.5 135 5.5Z" fill="white" stroke="#7B00FF" stroke-width="11"/>
<path d="M124 37C124 35.3431 125.343 34 127 34H136C137.657 34 139 35.3431 139 37V46C139 47.6569 137.657 49 136 49H127C125.343 49 124 47.6569 124 46V37Z" fill="black"/>
<rect x="117" y="27" width="29" height="29" rx="9" stroke="#7B00FF" stroke-width="5"/>
<path d="M34 37C34 35.3431 35.3431 34 37 34H46C47.6569 34 49 35.3431 49 37V46C49 47.6569 47.6569 49 46 49H37C35.3431 49 34 47.6569 34 46V37Z" fill="black"/>
<rect x="27" y="27" width="29" height="29" rx="9" stroke="#7B00FF" stroke-width="5"/>
<path d="M34 127C34 125.343 35.3431 124 37 124H46C47.6569 124 49 125.343 49 127V136C49 137.657 47.6569 139 46 139H37C35.3431 139 34 137.657 34 136V127Z" fill="black"/>
<rect x="27" y="117" width="29" height="29" rx="9" stroke="#7B00FF" stroke-width="5"/>
<path fill-rule="evenodd" clip-rule="evenodd" d="M69 26C69 24.8954 68.1046 24 67 24H66C64.8954 24 64 24.8954 64 26V27C64 28.1046 64.8954 29 66 29H69V32C69 33.1046 68.1046 34 67 34H66C64.8954 34 64 34.8954 64 36V39V44V47C64 48.1046 64.8954 49 66 49H67C68.1046 49 69 48.1046 69 47V46C69 44.8954 69.8954 44 71 44H74H79V47C79 48.1046 78.1046 49 77 49H76C74.8954 49 74 49.8954 74 51V54V59V64V69V72C74 73.1046 73.1046 74 72 74H71C69.8954 74 69 73.1046 69 72V69V66C69 64.8954 68.1046 64 67 64H66C64.8954 64 64 64.8954 64 66V67C64 68.1046 63.1046 69 62 69H59V66C59 64.8954 58.1046 64 57 64H56C54.8954 64 54 64.8954 54 66V69H51C49.8954 69 49 69.8954 49 71V72C49 73.1046 48.1046 74 47 74H44H41C39.8954 74 39 74.8954 39 76V77C39 78.1046 38.1046 79 37 79H36C34.8954 79 34 78.1046 34 77V76C34 74.8954 33.1046 74 32 74H31C29.8954 74 29 74.8954 29 76V79V82C29 83.1046 29.8954 84 31 84H34H39H44V89H41C39.8954 89 39 89.8954 39 91V92C39 93.1046 38.1046 94 37 94H34H31C29.8954 94 29 94.8954 29 96V99H26C24.8954 99 24 99.8954 24 101V102C24 103.105 24.8954 104 26 104H27C28.1046 104 29 103.105 29 102V99H34H37C38.1046 99 39 99.8954 39 101V102C39 103.105 38.1046 104 37 104H36C34.8954 104 34 104.895 34 106V107C34 108.105 34.8954 109 36 109H39H42C43.1046 109 44 108.105 44 107V104V99V94V89H47C48.1046 89 49 89.8954 49 91V92C49 93.1046 49.8954 94 51 94H54V97C54 98.1046 54.8954 99 56 99H59V102C59 103.105 58.1046 104 57 104H56C54.8954 104 54 104.895 54 106V107C54 108.105 54.8954 109 56 109H59H64V112C64 113.105 64.8954 114 66 114H69H72C73.1046 114 74 114.895 74 116V119V124V127C74 128.105 74.8954 129 76 129H79V132C79 133.105 78.1046 134 77 134H76C74.8954 134 74 134.895 74 136V137C74 138.105 73.1046 139 72 139H71C69.8954 139 69 138.105 69 137V134V131C69 129.895 68.1046 129 67 129H66C64.8954 129 64 129.895 64 131V134V139V144V147C64 148.105 64.8954 149 66 149H67C68.1046 149 69 148.105 69 147V146C69 144.895 69.8954 144 71 144H74H79H82C83.1046 144 84 143.105 84 142V141C84 139.895 84.8954 139 86 139H89V144V147C89 148.105 89.8954 149 91 149H94H97C98.1046 149 99 148.105 99 147V144V141C99 139.895 98.1046 139 97 139H94H89V134V129V124V119H92C93.1046 119 94 118.105 94 117V116C94 114.895 94.8954 114 96 114H97C98.1046 114 99 113.105 99 112V111C99 109.895 99.8954 109 101 109H102C103.105 109 104 109.895 104 111V114V117C104 118.105 103.105 119 102 119H101C99.8954 119 99 119.895 99 121V124H96C94.8954 124 94 124.895 94 126V129V132C94 133.105 94.8954 134 96 134H97C98.1046 134 99 133.105 99 132V129V124H102C103.105 124 104 124.895 104 126V127C104 128.105 104.895 129 106 129H107C108.105 129 109 129.895 109 131V132C109 133.105 108.105 134 107 134H106C104.895 134 104 134.895 104 136V137C104 138.105 104.895 139 106 139H107C108.105 139 109 139.895 109 141V142C109 143.105 109.895 144 111 144H112C113.105 144 114 144.895 114 146V147C114 148.105 114.895 149 116 149H119H124H129H134H139H144H147C148.105 149 149 148.105 149 147V146C149 144.895 148.105 144 147 144H144H141C139.895 144 139 143.105 139 142V141C139 139.895 139.895 139 141 139H142C143.105 139 144 138.105 144 137V136C144 134.895 144.895 134 146 134H147C148.105 134 149 133.105 149 132V129V126C149 124.895 148.105 124 147 124H146C144.895 124 144 124.895 144 126V127C144 128.105 143.105 129 142 129H139H136C134.895 129 134 128.105 134 127V126C134 124.895 133.105 124 132 124H131C129.895 124 129 123.105 129 122V119V114V111C129 109.895 129.895 109 131 109H132C133.105 109 134 109.895 134 111V114V117C134 118.105 134.895 119 136 119H139H144H147C148.105 119 149 118.105 149 117V114V109V104V101C149 99.8954 148.105 99 147 99H144V94H147C148.105 94 149 93.1046 149 92V89V86C149 84.8954 148.105 84 147 84H144H141C139.895 84 139 83.1046 139 82V81C139 79.8954 138.105 79 137 79H134H129H124V74V69H129H134H139V72C139 73.1046 139.895 74 141 74H142C143.105 74 144 73.1046 144 72V69H147C148.105 69 149 68.1046 149 67V66C149 64.8954 148.105 64 147 64H146C144.895 64 144 64.8954 144 66V69H139V66C139 64.8954 138.105 64 137 64H134H129H126C124.895 64 124 64.8954 124 66V69H121C119.895 69 119 69.8954 119 71V72C119 73.1046 118.105 74 117 74H116C114.895 74 114 74.8954 114 76V79V82C114 83.1046 113.105 84 112 84H109V79V76C109 74.8954 108.105 74 107 74H106C104.895 74 104 74.8954 104 76V77C104 78.1046 103.105 79 102 79H101C99.8954 79 99 78.1046 99 77V76C99 74.8954 98.1046 74 97 74H96C94.8954 74 94 73.1046 94 72V69H99H104H109H112C113.105 69 114 68.1046 114 67V66C114 64.8954 113.105 64 112 64H111C109.895 64 109 63.1046 109 62V59V54V49V44V41C109 39.8954 108.105 39 107 39H104H99V36C99 34.8954 98.1046 34 97 34H96C94.8954 34 94 33.1046 94 32V29V26C94 24.8954 93.1046 24 92 24H89H86C84.8954 24 84 24.8954 84 26V27C84 28.1046 83.1046 29 82 29H81C79.8954 29 79 28.1046 79 27V26C79 24.8954 78.1046 24 77 24H76C74.8954 24 74 24.8954 74 26V27C74 28.1046 73.1046 29 72 29H69V26ZM99 39V42C99 43.1046 98.1046 44 97 44H96C94.8954 44 94 43.1046 94 42V41C94 39.8954 94.8954 39 96 39H99ZM102 59C103.105 59 104 58.1046 104 57V54V51C104 49.8954 103.105 49 102 49H101C99.8954 49 99 49.8954 99 51V54V59H96C94.8954 59 94 58.1046 94 57V54V51C94 49.8954 93.1046 49 92 49H89H86C84.8954 49 84 49.8954 84 51V54H81C79.8954 54 79 54.8954 79 56V59V62C79 63.1046 79.8954 64 81 64H82C83.1046 64 84 63.1046 84 62V59V54H87C88.1046 54 89 54.8954 89 56V59V64V67C89 68.1046 89.8954 69 91 69H94V66C94 64.8954 94.8954 64 96 64H97C98.1046 64 99 63.1046 99 62V59H102ZM99 89H104H107C108.105 89 109 88.1046 109 87V84H104H101C99.8954 84 99 84.8954 99 86V89ZM94 99V102C94 103.105 93.1046 104 92 104H91C89.8954 104 89 104.895 89 106V109V114V119H86C84.8954 119 84 119.895 84 121V124V127C84 128.105 83.1046 129 82 129H79V124V119V114V111C79 109.895 78.1046 109 77 109H74H69H64V106C64 104.895 64.8954 104 66 104H69H74H79H82C83.1046 104 84 103.105 84 102V99V96C84 94.8954 84.8954 94 86 94H89V97C89 98.1046 89.8954 99 91 99H94ZM94 99V96C94 94.8954 93.1046 94 92 94H89V91C89 89.8954 89.8954 89 91 89H94H99V92C99 93.1046 99.8954 94 101 94H102C103.105 94 104 94.8954 104 96V99V102C104 103.105 103.105 104 102 104H101C99.8954 104 99 103.105 99 102V101C99 99.8954 98.1046 99 97 99H94ZM124 79V84V87C124 88.1046 123.105 89 122 89H121C119.895 89 119 88.1046 119 87V84V81C119 79.8954 119.895 79 121 79H124ZM144 94H139H136C134.895 94 134 94.8954 134 96V97C134 98.1046 134.895 99 136 99H139H144V102C144 103.105 143.105 104 142 104H139H134H131C129.895 104 129 103.105 129 102V99V94V89V86C129 84.8954 129.895 84 131 84H132C133.105 84 134 84.8954 134 86V87C134 88.1046 134.895 89 136 89H139H142C143.105 89 144 89.8954 144 91V94ZM79 89V94V97C79 98.1046 78.1046 99 77 99H74H69H64H59V96C59 94.8954 58.1046 94 57 94H54V91C54 89.8954 54.8954 89 56 89H59H64H69H74H79ZM79 89V84V81C79 79.8954 79.8954 79 81 79H84H87C88.1046 79 89 79.8954 89 81V82C89 83.1046 88.1046 84 87 84H86C84.8954 84 84 84.8954 84 86V87C84 88.1046 83.1046 89 82 89H79ZM44 84V81C44 79.8954 44.8954 79 46 79H47C48.1046 79 49 79.8954 49 81V82C49 83.1046 48.1046 84 47 84H44ZM54 69H59V72C59 73.1046 58.1046 74 57 74H56C54.8954 74 54 73.1046 54 72V69ZM79 44V39V36C79 34.8954 79.8954 34 81 34H84H87C88.1046 34 89 34.8954 89 36V37C89 38.1046 88.1046 39 87 39H86C84.8954 39 84 39.8954 84 41V42C84 43.1046 83.1046 44 82 44H79ZM109 26C109 24.8954 108.105 24 107 24H106C104.895 24 104 24.8954 104 26V27C104 28.1046 104.895 29 106 29H107C108.105 29 109 28.1046 109 27V26ZM69 56C69 54.8954 68.1046 54 67 54H66C64.8954 54 64 54.8954 64 56V57C64 58.1046 64.8954 59 66 59H67C68.1046 59 69 58.1046 69 57V56ZM29 64H26C24.8954 64 24 64.8954 24 66V67C24 68.1046 24.8954 69 26 69H29H34H39H42C43.1046 69 44 68.1046 44 67V66C44 64.8954 43.1046 64 42 64H39H34H29ZM79 71C79 69.8954 79.8954 69 81 69H82C83.1046 69 84 69.8954 84 71V72C84 73.1046 83.1046 74 82 74H81C79.8954 74 79 73.1046 79 72V71ZM54 81C54 79.8954 54.8954 79 56 79H57C58.1046 79 59 79.8954 59 81V82C59 83.1046 58.1046 84 57 84H56C54.8954 84 54 83.1046 54 82V81ZM64 81C64 79.8954 64.8954 79 66 79H67C68.1046 79 69 79.8954 69 81V82C69 83.1046 68.1046 84 67 84H66C64.8954 84 64 83.1046 64 82V81ZM114 96C114 94.8954 114.895 94 116 94H119H122C123.105 94 124 94.8954 124 96V97C124 98.1046 123.105 99 122 99H119H116C114.895 99 114 98.1046 114 97V96ZM109 111C109 109.895 109.895 109 111 109H114H119H122C123.105 109 124 109.895 124 111V114V119V122C124 123.105 123.105 124 122 124H119H114H111C109.895 124 109 123.105 109 122V119V114V111ZM139 111C139 109.895 139.895 109 141 109H142C143.105 109 144 109.895 144 111V112C144 113.105 143.105 114 142 114H141C139.895 114 139 113.105 139 112V111ZM119 116C119 114.895 118.105 114 117 114H116C114.895 114 114 114.895 114 116V117C114 118.105 114.895 119 116 119H117C118.105 119 119 118.105 119 117V116ZM119 131C119 129.895 119.895 129 121 129H122C123.105 129 124 129.895 124 131V134V139V142C124 143.105 123.105 144 122 144H121C119.895 144 119 143.105 119 142V139V134V131ZM129 136C129 134.895 129.895 134 131 134H132C133.105 134 134 134.895 134 136V139V142C134 143.105 133.105 144 132 144H131C129.895 144 129 143.105 129 142V139V136Z" fill="black"/>
</svg>
