<svg width="1440" height="1369" viewBox="0 0 1440 1369" fill="none" xmlns="http://www.w3.org/2000/svg">
<path d="M335.5 0C611 0 942 127.5 1146 127.5C1270.12 127.5 1366.84 102.819 1440 87.5V1368.5C1440 1368.5 1136 1291 720 1291C304 1291 0 1368.5 0 1368.5V48.5453C39.2363 36.5733 142.779 0 335.5 0Z" fill="#EFF6FF" fill-opacity="0.5"/>
<path d="M335.5 81C611 81 942 153 1146 153C1270.12 153 1366.84 142.018 1440 126.699V1331C1440 1331 1025 1267 720 1267C415 1267 0 1331 0 1331V129.545C39.2363 117.573 142.779 81 335.5 81Z" fill="#EEF2FF"/>
</svg>
