<svg width="1147" height="700" viewBox="0 0 1147 700" fill="none" xmlns="http://www.w3.org/2000/svg">
<g clip-path="url(#clip0_438_161)">
<rect width="1147" height="700" fill="white"/>
<path opacity="0.1" d="M1151.38 66.7501L1167.05 39.6009C1170.48 33.6634 1170.48 26.3486 1167.05 20.4081L1151.38 -6.74128C1147.95 -12.6817 1141.61 -16.3406 1134.75 -16.3395L1103.41 -16.3437C1096.55 -16.3441 1090.21 -12.6882 1086.79 -6.7481L1071.12 20.3986C1067.69 26.3361 1067.69 33.6534 1071.12 39.5939L1086.79 66.7448C1090.22 72.6853 1096.56 76.3441 1103.42 76.343L1134.76 76.3473C1141.62 76.3461 1147.96 72.6877 1151.38 66.7501Z" fill="#7B00FF"/>
<g clip-path="url(#clip1_438_161)">
<path d="M511.188 86.9133C505.072 86.9133 497.88 85.119 489.906 79.883L491.699 77.1589C505.268 86.0488 516.178 84.1729 522.963 81.0411C532.079 76.8164 537.086 68.8726 537.592 64.8437C537.64 64.4522 537.657 64.077 537.657 63.7182C534.852 64.1423 532.063 63.7182 530.09 62.6905C527.709 61.4508 526.534 59.3956 526.844 57.0793C527.252 54.0454 529.388 52.3163 532.275 52.6915C535.113 53.0667 538.603 55.7091 540.119 59.6239C540.902 59.2488 541.652 58.7757 542.288 58.1885C545.485 55.285 545.778 50.3916 543.169 44.03L546.186 42.7903C550.41 53.083 546.936 58.3679 544.49 60.6026C543.414 61.5813 542.174 62.3317 540.87 62.8536C540.935 63.6203 540.918 64.4359 540.821 65.2678C540.087 71.0747 533.726 79.6709 524.333 84.0261C520.859 85.6247 516.423 86.9459 511.204 86.9459L511.188 86.9133ZM531.492 55.8886C530.856 55.8886 530.253 56.1822 530.073 57.5034C529.943 58.4169 530.465 59.1835 531.606 59.7871C533.009 60.5211 534.998 60.7984 537.004 60.5374C535.912 57.9275 533.677 56.1659 531.867 55.9212C531.753 55.9212 531.623 55.8886 531.508 55.8886H531.492Z" fill="#FFB6C8"/>
</g>
<path opacity="0.1" d="M426.726 226.985L464.649 161.287C472.943 146.918 472.939 129.217 464.64 114.842L426.709 49.1431C418.41 34.7678 403.077 25.9137 386.487 25.9164L310.629 25.9062C294.032 25.9053 278.704 34.7522 270.406 49.1266L232.486 114.819C224.192 129.187 224.193 146.894 232.492 161.27L270.43 226.972C278.729 241.347 294.061 250.201 310.652 250.199L386.509 250.209C403.1 250.206 418.432 241.353 426.726 226.985Z" stroke="#6200B3" stroke-width="4.22966" stroke-miterlimit="10"/>
<path opacity="0.1" d="M441.423 243.708L486.478 165.655C496.332 148.585 496.327 127.555 486.467 110.477L441.403 32.4232C431.543 15.3446 413.327 4.82551 393.617 4.82871L303.494 4.81651C283.777 4.81545 265.565 15.326 255.708 32.4035L210.657 110.449C200.803 127.519 200.804 148.556 210.664 165.635L255.736 243.692C265.595 260.771 283.811 271.29 303.521 271.287L393.644 271.299C413.354 271.296 431.569 260.778 441.423 243.708Z" stroke="#6200B3" stroke-width="5.02504" stroke-miterlimit="10"/>
<path opacity="0.1" d="M459.265 264.007L512.976 170.958C524.723 150.608 524.717 125.538 512.963 105.178L459.24 12.1275C447.486 -8.2325 425.77 -20.7727 402.273 -20.7688L294.835 -20.7834C271.329 -20.7847 249.619 -8.25465 237.867 12.104L184.16 105.145C172.414 125.495 172.414 150.574 184.168 170.933L237.9 263.989C249.654 284.349 271.37 296.889 294.867 296.885L402.306 296.9C425.803 296.896 447.518 284.357 459.265 264.007Z" stroke="#6200B3" stroke-width="5.99052" stroke-miterlimit="10"/>
</g>
<defs>
<clipPath id="clip0_438_161">
<rect width="1147" height="700" fill="white"/>
</clipPath>
<clipPath id="clip1_438_161">
<rect width="58.2702" height="44.1393" fill="white" transform="translate(489.905 42.7778)"/>
</clipPath>
</defs>
</svg>
