<svg width="327" height="135" viewBox="0 0 327 135" fill="none" xmlns="http://www.w3.org/2000/svg">
<path d="M28.2548 0.0663354C24.9482 0.450703 23.1275 2.1087 21.1317 4.19916C20.3959 4.96986 19.1839 4.99154 18.4208 4.24793C15.9848 1.87433 13.9159 0.153465 9.84951 0.104733C4.46743 0.0343373 -0.204294 3.82931 0.00689324 9.75536C0.00689324 15.771 10.0842 24.7134 15.1228 30.4645L18.4492 33.6681C19.2007 34.3918 20.3925 34.3829 21.1332 33.6482L25.4646 29.351C29.219 25.7843 37.1668 17.8266 38.923 14.5295C42.7307 6.92673 35.7936 -0.797613 28.2548 0.0663354Z" fill="#7900F1"/>
<circle cx="70.5" cy="17.5" r="15.5" stroke="#7900F1" stroke-width="4"/>
<circle cx="120.5" cy="17.5" r="15.5" stroke="#7900F1" stroke-width="4"/>
<circle cx="20.5" cy="67.5" r="15.5" stroke="#7900F1" stroke-width="4"/>
<path d="M78.2548 50.0663C74.9482 50.4507 73.1275 52.1087 71.1317 54.1992C70.3959 54.9699 69.1839 54.9915 68.4208 54.2479C65.9848 51.8743 63.9159 50.1535 59.8495 50.1047C54.4674 50.0343 49.7957 53.8293 50.0069 59.7554C50.0069 65.771 60.0842 74.7134 65.1228 80.4645L68.4492 83.6681C69.2007 84.3918 70.3925 84.3829 71.1332 83.6482L75.4646 79.351C79.219 75.7843 87.1668 67.8266 88.923 64.5295C92.7307 56.9267 85.7936 49.2024 78.2548 50.0663Z" fill="#7900F1"/>
<rect x="105" y="52" width="31" height="31" stroke="#7900F1" stroke-width="4"/>
<rect x="5" y="102" width="31" height="31" stroke="#7900F1" stroke-width="4"/>
<rect x="55" y="102" width="31" height="31" stroke="#7900F1" stroke-width="4"/>
<path d="M128.255 100.066C124.948 100.451 123.127 102.109 121.132 104.199C120.396 104.97 119.184 104.992 118.421 104.248C115.985 101.874 113.916 100.153 109.85 100.105C104.467 100.034 99.7957 103.829 100.007 109.755C100.007 115.771 110.084 124.713 115.123 130.465L118.449 133.668C119.201 134.392 120.393 134.383 121.133 133.648L125.465 129.351C129.219 125.784 137.167 117.827 138.923 114.529C142.731 106.927 135.794 99.2024 128.255 100.066Z" fill="#7900F1"/>
<mask id="mask0_1414_52278" style="mask-type:alpha" maskUnits="userSpaceOnUse" x="191" y="0" width="35" height="35">
<rect x="191" width="35" height="35" rx="6" fill="#D9D9D9"/>
</mask>
<g mask="url(#mask0_1414_52278)">
<path d="M231 80L166 15" stroke="#7900F1" stroke-width="4"/>
<path d="M236 75L171 10" stroke="#7900F1" stroke-width="4"/>
<path d="M241 69L177 5" stroke="#7900F1" stroke-width="4"/>
<path d="M246 64L182 2.38419e-06" stroke="#7900F1" stroke-width="4"/>
<path d="M252 59L187 -6" stroke="#7900F1" stroke-width="4"/>
<path d="M257 54L192 -11" stroke="#7900F1" stroke-width="4"/>
<path d="M262 48L198 -16" stroke="#7900F1" stroke-width="4"/>
<path d="M267 43L203 -21" stroke="#7900F1" stroke-width="4"/>
<path d="M273 39L208 -26" stroke="#7900F1" stroke-width="4"/>
<path d="M278 33L213 -32" stroke="#7900F1" stroke-width="4"/>
</g>
<rect x="241" width="35" height="35" rx="6" fill="#7900F1"/>
<mask id="mask1_1414_52278" style="mask-type:alpha" maskUnits="userSpaceOnUse" x="291" y="0" width="35" height="35">
<rect x="291" width="35" height="35" rx="6" fill="#D9D9D9"/>
</mask>
<g mask="url(#mask1_1414_52278)">
<path d="M331 80L266 15" stroke="#7900F1" stroke-width="4"/>
<path d="M336 75L271 10" stroke="#7900F1" stroke-width="4"/>
<path d="M341 69L277 5" stroke="#7900F1" stroke-width="4"/>
<path d="M346 64L282 2.38419e-06" stroke="#7900F1" stroke-width="4"/>
<path d="M352 59L287 -6" stroke="#7900F1" stroke-width="4"/>
<path d="M357 54L292 -11" stroke="#7900F1" stroke-width="4"/>
<path d="M362 48L298 -16" stroke="#7900F1" stroke-width="4"/>
<path d="M367 43L303 -21" stroke="#7900F1" stroke-width="4"/>
<path d="M373 39L308 -26" stroke="#7900F1" stroke-width="4"/>
<path d="M378 33L313 -32" stroke="#7900F1" stroke-width="4"/>
</g>
<rect x="191" y="100" width="35" height="35" rx="6" fill="#7900F1"/>
<mask id="mask2_1414_52278" style="mask-type:alpha" maskUnits="userSpaceOnUse" x="241" y="100" width="35" height="35">
<rect x="241" y="100" width="35" height="35" rx="6" fill="#D9D9D9"/>
</mask>
<g mask="url(#mask2_1414_52278)">
<path d="M281 180L216 115" stroke="#7900F1" stroke-width="4"/>
<path d="M286 175L221 110" stroke="#7900F1" stroke-width="4"/>
<path d="M291 169L227 105" stroke="#7900F1" stroke-width="4"/>
<path d="M296 164L232 100" stroke="#7900F1" stroke-width="4"/>
<path d="M302 159L237 94" stroke="#7900F1" stroke-width="4"/>
<path d="M307 154L242 89" stroke="#7900F1" stroke-width="4"/>
<path d="M312 148L248 84" stroke="#7900F1" stroke-width="4"/>
<path d="M317 143L253 79" stroke="#7900F1" stroke-width="4"/>
<path d="M323 139L258 74" stroke="#7900F1" stroke-width="4"/>
<path d="M328 133L263 68" stroke="#7900F1" stroke-width="4"/>
</g>
<rect x="291" y="100" width="35" height="35" rx="6" fill="#7900F1"/>
<path d="M191 87L202.801 84.2028C206.137 83.4119 209.613 83.4119 212.949 84.2028L219.676 85.7972C223.012 86.5881 226.488 86.5881 229.824 85.7972L236.551 84.2028C239.887 83.4119 243.363 83.4119 246.699 84.2028L253.426 85.7972C256.762 86.5881 260.238 86.5881 263.574 85.7972L270.301 84.2028C273.637 83.4119 277.113 83.4119 280.449 84.2028L287.176 85.7972C290.512 86.5881 293.988 86.5881 297.324 85.7972L304.051 84.2028C307.387 83.4119 310.863 83.4119 314.199 84.2028L326 87" stroke="#7900F1" stroke-width="4"/>
<path d="M191 80L202.801 77.2028C206.137 76.4119 209.613 76.4119 212.949 77.2028L219.676 78.7972C223.012 79.5881 226.488 79.5881 229.824 78.7972L236.551 77.2028C239.887 76.4119 243.363 76.4119 246.699 77.2028L253.426 78.7972C256.762 79.5881 260.238 79.5881 263.574 78.7972L270.301 77.2028C273.637 76.4119 277.113 76.4119 280.449 77.2028L287.176 78.7972C290.512 79.5881 293.988 79.5881 297.324 78.7972L304.051 77.2028C307.387 76.4119 310.863 76.4119 314.199 77.2028L326 80" stroke="#7900F1" stroke-width="4"/>
<path d="M191 73L202.801 70.2028C206.137 69.4119 209.613 69.4119 212.949 70.2028L219.676 71.7972C223.012 72.5881 226.488 72.5881 229.824 71.7972L236.551 70.2028C239.887 69.4119 243.363 69.4119 246.699 70.2028L253.426 71.7972C256.762 72.5881 260.238 72.5881 263.574 71.7972L270.301 70.2028C273.637 69.4119 277.113 69.4119 280.449 70.2028L287.176 71.7972C290.512 72.5881 293.988 72.5881 297.324 71.7972L304.051 70.2028C307.387 69.4119 310.863 69.4119 314.199 70.2028L326 73" stroke="#7900F1" stroke-width="4"/>
<path d="M191 66L202.801 63.2028C206.137 62.4119 209.613 62.4119 212.949 63.2028L219.676 64.7972C223.012 65.5881 226.488 65.5881 229.824 64.7972L236.551 63.2028C239.887 62.4119 243.363 62.4119 246.699 63.2028L253.426 64.7972C256.762 65.5881 260.238 65.5881 263.574 64.7972L270.301 63.2028C273.637 62.4119 277.113 62.4119 280.449 63.2028L287.176 64.7972C290.512 65.5881 293.988 65.5881 297.324 64.7972L304.051 63.2028C307.387 62.4119 310.863 62.4119 314.199 63.2028L326 66" stroke="#7900F1" stroke-width="4"/>
<path d="M191 59L202.801 56.2028C206.137 55.4119 209.613 55.4119 212.949 56.2028L219.676 57.7972C223.012 58.5881 226.488 58.5881 229.824 57.7972L236.551 56.2028C239.887 55.4119 243.363 55.4119 246.699 56.2028L253.426 57.7972C256.762 58.5881 260.238 58.5881 263.574 57.7972L270.301 56.2028C273.637 55.4119 277.113 55.4119 280.449 56.2028L287.176 57.7972C290.512 58.5881 293.988 58.5881 297.324 57.7972L304.051 56.2028C307.387 55.4119 310.863 55.4119 314.199 56.2028L326 59" stroke="#7900F1" stroke-width="4"/>
<path d="M191 52L202.801 49.2028C206.137 48.4119 209.613 48.4119 212.949 49.2028L219.676 50.7972C223.012 51.5881 226.488 51.5881 229.824 50.7972L236.551 49.2028C239.887 48.4119 243.363 48.4119 246.699 49.2028L253.426 50.7972C256.762 51.5881 260.238 51.5881 263.574 50.7972L270.301 49.2028C273.637 48.4119 277.113 48.4119 280.449 49.2028L287.176 50.7972C290.512 51.5881 293.988 51.5881 297.324 50.7972L304.051 49.2028C307.387 48.4119 310.863 48.4119 314.199 49.2028L326 52" stroke="#7900F1" stroke-width="4"/>
<path d="M248.417 63.0173C247.624 63.1086 247.157 63.4766 246.682 63.9543C246.41 64.2282 245.977 64.2364 245.696 63.9719C245.113 63.4242 244.574 63.039 243.585 63.0273C242.173 63.0089 240.946 63.9965 241.002 65.5386C241.002 67.104 243.647 69.431 244.97 70.9276L245.707 71.6316C245.981 71.8926 246.412 71.8894 246.681 71.6244L247.684 70.6378C248.67 69.7097 250.756 67.6389 251.217 66.7809C252.217 64.8025 250.396 62.7924 248.417 63.0173Z" fill="#EFF1FD"/>
<path d="M260.523 65.0173C259.81 65.1053 259.379 65.4497 258.953 65.9017C258.675 66.1964 258.219 66.2051 257.931 65.9198C257.407 65.3999 256.907 65.0386 256.014 65.0273C254.695 65.0089 253.551 65.9965 253.602 67.5386C253.602 69.104 256.071 71.431 257.306 72.9276L257.944 73.5803C258.221 73.8641 258.679 73.8607 258.952 73.5729L259.839 72.6378C260.759 71.7097 262.706 69.6389 263.137 68.7809C264.07 66.8025 262.37 64.7924 260.523 65.0173Z" fill="#EFF1FD"/>
<path d="M272.917 63.0173C272.124 63.1086 271.657 63.4766 271.182 63.9543C270.91 64.2282 270.477 64.2364 270.196 63.9719C269.613 63.4242 269.074 63.039 268.085 63.0273C266.673 63.0089 265.446 63.9965 265.502 65.5386C265.502 67.104 268.147 69.431 269.47 70.9276L270.207 71.6316C270.481 71.8926 270.912 71.8894 271.181 71.6244L272.184 70.6378C273.17 69.7097 275.256 67.6389 275.717 66.7809C276.717 64.8025 274.896 62.7924 272.917 63.0173Z" fill="#EFF1FD"/>
</svg>
