<svg width="136" height="34" viewBox="0 0 136 34" fill="none" xmlns="http://www.w3.org/2000/svg">
<path d="M49.1247 15.2816C49.7547 14.3608 50.0777 13.3431 50.0777 12.2285C50.0777 10.6777 49.5285 9.33691 48.4462 8.25459C47.3639 7.17228 46.0231 6.62305 44.4723 6.62305H36.8477V23.7947H40.0623V17.7046H43.6646L47.1216 23.6654L47.1862 23.7785H50.74L46.8793 17.1716C47.7839 16.7516 48.5431 16.1216 49.1247 15.2816ZM44.4885 14.7808H40.0623V9.65999H44.4885C45.1669 9.65999 45.7162 9.9023 46.1846 10.4031C46.6531 10.9038 46.8793 11.5015 46.8793 12.2285C46.8793 12.9554 46.6531 13.5531 46.1846 14.0539C45.7162 14.5385 45.1508 14.7808 44.4885 14.7808Z" fill="#1E1F1D"/>
<path d="M57.2664 11.082C55.3603 11.082 53.7772 11.712 52.5656 12.9559C51.3541 14.1997 50.7402 15.7505 50.7402 17.5921C50.7402 19.4659 51.3702 21.0329 52.5979 22.2606C53.8256 23.4883 55.4733 24.1021 57.4603 24.1021C59.8349 24.1021 61.6603 23.1975 62.8718 21.4044L63.0172 21.1944L60.4972 19.7244L60.368 19.9021C59.7218 20.8229 58.7849 21.2752 57.4764 21.2752C56.5395 21.2752 55.748 21.049 55.1018 20.5967C54.5364 20.1929 54.1649 19.6436 53.9549 18.9328H63.3565L63.3888 18.739C63.4534 18.2867 63.4857 17.9151 63.4857 17.6244C63.4857 15.8151 62.9042 14.2644 61.7411 13.0044C60.5941 11.7282 59.0757 11.082 57.2664 11.082ZM53.9387 16.3482C54.1326 15.6213 54.4718 15.0559 55.0049 14.6197C55.6026 14.1351 56.3456 13.8928 57.2341 13.8928C58.0257 13.8928 58.7041 14.119 59.3018 14.5713C59.8187 14.9751 60.1741 15.5728 60.368 16.3482H53.9387Z" fill="#1E1F1D"/>
<path d="M71.6585 11.082C70.1723 11.082 69.0092 11.5505 68.2015 12.4551V11.389H65.1484V23.779H68.2015V17.1559C68.2015 16.0574 68.46 15.2497 68.9769 14.7328C69.4777 14.2159 70.1723 13.9574 70.9961 13.9574C71.7715 13.9574 72.3531 14.1674 72.7892 14.6036C73.2254 15.0397 73.4354 15.6697 73.4354 16.4936V23.7952H76.4885V16.2351C76.4885 14.6521 76.0362 13.392 75.1639 12.4713C74.2592 11.5505 73.0962 11.082 71.6585 11.082Z" fill="#1E1F1D"/>
<path d="M81.6424 7.96484L78.6055 8.88562V14.3456V19.838C78.6055 21.4695 79.0739 22.6165 79.9947 23.2465C80.6409 23.6826 81.5616 23.9088 82.7732 23.9088C83.2578 23.9088 83.807 23.8765 84.3886 23.7957L84.5986 23.7634V21.0011L84.3563 21.0172C83.7263 21.0495 83.177 21.0495 82.7409 21.0334C82.3693 21.0172 82.0786 20.9203 81.9009 20.7426C81.7232 20.5811 81.6424 20.2741 81.6424 19.8541V14.3618H84.5986V11.3895H81.6424V7.96484Z" fill="#1E1F1D"/>
<path d="M93.854 11.082C92.2225 11.082 90.8979 11.6151 89.9125 12.6813V11.389H86.8594V28.2537H89.9125V22.5029C90.8979 23.5529 92.2225 24.086 93.854 24.086C95.5502 24.086 97.0202 23.4559 98.2156 22.1959C99.411 20.9521 100.025 19.3852 100.025 17.5759C100.025 15.7667 99.411 14.2159 98.2156 12.972C97.0202 11.7282 95.5502 11.082 93.854 11.082ZM95.9864 20.1605C95.3079 20.839 94.484 21.1782 93.4502 21.1782C92.4163 21.1782 91.5925 20.839 90.914 20.1605C90.2355 19.4821 89.9125 18.6421 89.9125 17.5921C89.9125 16.5421 90.2355 15.7021 90.914 15.0236C91.5925 14.3451 92.4163 14.0059 93.4502 14.0059C94.484 14.0059 95.3079 14.3451 95.9864 15.0236C96.6648 15.7021 96.9879 16.5421 96.9879 17.5921C96.9879 18.6259 96.6648 19.4659 95.9864 20.1605Z" fill="#1E1F1D"/>
<path d="M111.204 12.6651C110.219 11.6151 108.894 11.082 107.263 11.082C105.566 11.082 104.096 11.712 102.901 12.972C101.706 14.2159 101.092 15.7828 101.092 17.5921C101.092 19.4013 101.706 20.9521 102.901 22.1959C104.096 23.4559 105.566 24.086 107.263 24.086C108.894 24.086 110.219 23.5529 111.204 22.4867V23.779H114.257V11.389H111.204V12.6651ZM110.186 20.1605C109.508 20.839 108.684 21.1782 107.65 21.1782C106.616 21.1782 105.793 20.839 105.114 20.1605C104.436 19.4821 104.113 18.6421 104.113 17.5921C104.113 16.5421 104.436 15.7021 105.114 15.0236C105.793 14.3451 106.616 14.0059 107.65 14.0059C108.684 14.0059 109.508 14.3451 110.186 15.0236C110.865 15.7021 111.188 16.5421 111.188 17.5921C111.204 18.6259 110.865 19.4659 110.186 20.1605Z" fill="#1E1F1D"/>
<path d="M124.337 23.3108L129.7 11.373H126.308L122.593 19.7569L122.528 19.6116L118.441 11.373H115.113L121.026 23.2785L118.829 28.2539H122.108L124.321 23.3108H124.337Z" fill="#1E1F1D"/>
<path d="M19.8371 27.3165H15.3301L21.7109 20.9357H26.8479V9.33715H9.56314V20.9357H15.3301V24.118H9.56314H6.20312V6.13867H30.224V24.118H26.8479H23.0355L19.8371 27.3165Z" fill="url(#paint0_linear_4226_106806)"/>
<defs>
<linearGradient id="paint0_linear_4226_106806" x1="6.19823" y1="16.7279" x2="30.2174" y2="16.7279" gradientUnits="userSpaceOnUse">
<stop stop-color="#6200B4"/>
<stop offset="0.121" stop-color="#6500BE"/>
<stop offset="0.7067" stop-color="#7000ED"/>
<stop offset="1" stop-color="#7400FF"/>
</linearGradient>
</defs>
</svg>
