<svg width="143" height="26" viewBox="0 0 143 26" fill="none" xmlns="http://www.w3.org/2000/svg">
<path d="M46.1703 6.58668C46.1703 7.43712 45.8996 8.13464 45.3461 8.72325C44.7994 9.30504 44.1516 9.5852 43.3624 9.5852H38.1656V3.58293H43.3624C44.1516 3.58293 44.802 3.86309 45.3461 4.4496C45.8991 5.03401 46.1703 5.73363 46.1703 6.58668ZM48.8159 10.1743C49.5653 9.09557 49.9444 7.88904 49.9444 6.58668C49.9444 4.76118 49.2987 3.18966 48.0294 1.91767C46.7542 0.645681 45.1832 0 43.3619 0H34.3894V20.1769H38.1656V13.0294H42.3942L46.4578 20.0423L46.538 20.1769H50.71L46.1656 12.4051C47.2397 11.9129 48.1325 11.1662 48.8159 10.1743ZM62.0312 11.4416H54.4715C54.6904 10.5912 55.1051 9.92244 55.732 9.40401C56.4243 8.83374 57.3103 8.54415 58.3608 8.54415C59.2819 8.54415 60.0967 8.81751 60.7822 9.35217C61.3928 9.83028 61.8097 10.5351 62.0312 11.4416ZM65.5858 14.2238C65.6612 13.6845 65.6989 13.2488 65.6989 12.9236C65.6989 10.8033 65.0108 8.97775 63.6519 7.49368C62.2857 5.99756 60.5162 5.24138 58.3896 5.24138C56.1541 5.24138 54.295 5.98342 52.8675 7.44393C51.4374 8.89972 50.7095 10.7352 50.7095 12.8953C50.7095 15.091 51.4468 16.9354 52.8958 18.3744C54.3443 19.8093 56.2693 20.5419 58.6132 20.5419C61.407 20.5419 63.5482 19.4726 64.9805 17.3643L65.1428 17.1192L62.1767 15.3853L62.0306 15.5927C61.2745 16.6835 60.1695 17.2135 58.6409 17.2135C57.5454 17.2135 56.6054 16.9427 55.8566 16.4102C55.1921 15.9415 54.747 15.3005 54.5066 14.4595H65.5528L65.5858 14.2238ZM77.3175 20.1769H80.8984V11.296C80.8984 9.43491 80.3705 7.94612 79.3342 6.87418C78.2905 5.79071 76.9148 5.24191 75.2375 5.24191C73.4969 5.24191 72.1327 5.78862 71.1665 6.85794V5.58596H67.5883V20.1769H71.1665V12.3889C71.1665 11.1028 71.4729 10.1466 72.0714 9.54069C72.6674 8.93533 73.4686 8.62689 74.451 8.62689C75.358 8.62689 76.0455 8.87406 76.5572 9.38778C77.0635 9.89417 77.3181 10.6362 77.3181 11.6024V20.1769H77.3175ZM90.5401 20.1743L90.7852 20.146V16.8904L90.4956 16.9045C89.7536 16.9422 89.1105 16.9516 88.6062 16.9186C88.1585 16.893 87.8265 16.7799 87.6144 16.5793C87.4117 16.3814 87.308 16.0305 87.308 15.5288V9.05316H90.7852V5.58543H87.308V1.77628L83.7272 3.56408V9.07672V15.5288C83.7272 17.4465 84.2786 18.7913 85.3642 19.5291C86.1298 20.0475 87.2085 20.2994 88.6366 20.2994C89.2142 20.2994 89.8452 20.2591 90.5401 20.1743ZM105.504 12.8953C105.504 14.1202 105.117 15.1073 104.321 15.9085C103.528 16.7097 102.557 17.103 101.349 17.103C100.143 17.103 99.1696 16.7097 98.3784 15.9085C97.5819 15.1073 97.1959 14.1207 97.1959 12.8953C97.1959 11.6678 97.5824 10.6807 98.3784 9.87741C99.1696 9.0762 100.143 8.68292 101.349 8.68292C102.557 8.68292 103.528 9.0762 104.321 9.87741C105.117 10.6807 105.504 11.6678 105.504 12.8953ZM106.957 18.3252C108.366 16.8574 109.082 15.0298 109.082 12.8953C109.082 10.7703 108.365 8.94947 106.957 7.47744C105.546 5.99546 103.819 5.24191 101.826 5.24191C99.9038 5.24191 98.349 5.87764 97.1949 7.12868V5.58543H93.614V25.5314H97.1949V18.6808C98.349 19.913 99.9038 20.5419 101.826 20.5419C103.819 20.5419 105.546 19.7951 106.957 18.3252ZM121.914 12.8953C121.914 14.1202 121.527 15.1073 120.733 15.9085C119.939 16.7097 118.966 17.103 117.76 17.103C116.552 17.103 115.579 16.7097 114.787 15.9085C113.992 15.1073 113.607 14.1207 113.607 12.8953C113.607 11.6678 113.991 10.6807 114.787 9.87741C115.579 9.0762 116.552 8.68292 117.76 8.68292C118.966 8.68292 119.939 9.0762 120.733 9.87741C121.528 10.6807 121.914 11.6678 121.914 12.8953ZM121.914 20.1696H125.494V5.58543H121.914V7.10721C120.759 5.86821 119.205 5.24138 117.282 5.24138C115.292 5.24138 113.565 5.98813 112.151 7.46278C110.74 8.928 110.026 10.7561 110.026 12.8953C110.026 15.013 110.74 16.8338 112.151 18.309C113.56 19.791 115.289 20.5419 117.282 20.5419C119.207 20.5419 120.761 19.9062 121.914 18.6572V20.1696ZM143 5.58543H138.875L134.613 15.1565L129.879 5.58543H125.966L132.771 19.2956L129.998 25.522H134.123L143 5.58543Z" fill="white"/>
<path d="M25.7435 0H24.5752H23.4063H22.238H21.0697H19.9014H18.7326H17.5643H16.396H15.2277H14.0589H12.8906H11.7223H10.554H9.38516H8.21686H7.04856H5.88026H4.71143H3.54313H2.37483H1.20653H0.037704H0V20.179V20.1837H0.037704H1.20653H2.37483H3.54313H4.71143H5.88026H7.04856H8.21686H9.38516H9.89416V16.6196H9.38516H8.21686H7.04856H5.88026H4.71143H3.76202V3.56198H4.71143H5.88026H7.04856H8.21686H9.38516H10.554H11.7223H12.8906H14.0589H15.2277H16.396H17.5643H18.7326H19.9014H21.0697H22.238H23.1518V16.6196H22.238H21.0697H19.9014H18.7326H17.5643H17.0176L16.396 17.2417L15.2277 18.41L14.0589 19.5783L12.8906 20.7466L11.7223 21.9155L10.554 23.0838L9.89416 23.7436H10.554H11.7223H12.8906H14.0589H15.211L15.2277 23.7268L16.396 22.5585L17.5643 21.3897L18.7326 20.2214L18.7703 20.1837H19.9014H21.0697H22.238H23.4063H24.5752H25.7435H26.9118V20.179V0H25.7435Z" fill="white"/>
</svg>
