<svg width="280" height="298" viewBox="0 0 280 298" fill="none" xmlns="http://www.w3.org/2000/svg">
<path fill-rule="evenodd" clip-rule="evenodd" d="M236.774 23.3807L243.204 0H228.59L220.028 21.2569C218.945 24.0124 218.109 26.2267 217.518 27.8997C216.928 29.5727 216.534 31.0489 216.337 32.3282C216.141 33.5092 216.042 34.7393 216.042 36.0187C216.042 40.2504 217.371 43.6948 220.028 46.3519C222.783 48.9106 226.228 50.19 230.361 50.19C234.396 50.19 237.742 48.9106 240.399 46.3519C243.155 43.6948 244.532 40.2504 244.532 36.0187C244.532 31.6886 243.204 28.2934 240.547 25.8331C239.429 24.7978 238.171 23.9803 236.774 23.3807ZM271.612 23.3807L278.042 0H263.427L254.866 21.2569C253.783 24.0124 252.947 26.2267 252.356 27.8997C251.766 29.5727 251.372 31.0489 251.175 32.3282C250.978 33.5092 250.88 34.7393 250.88 36.0187C250.88 40.2504 252.208 43.6948 254.866 46.3519C257.621 48.9106 261.066 50.19 265.199 50.19C269.234 50.19 272.58 48.9106 275.237 46.3519C277.992 43.6948 279.37 40.2504 279.37 36.0187C279.37 31.6886 278.042 28.2934 275.384 25.8331C274.266 24.7978 273.009 23.9803 271.612 23.3807ZM92.3303 260.05L76.8128 286.927C74.2144 291.428 69.4124 294.2 64.2156 294.2H33.1805C27.9837 294.2 23.1817 291.428 20.5833 286.927L5.0658 260.05C2.4674 255.549 2.46741 250.004 5.0658 245.504L20.5833 218.627C23.1817 214.126 27.9837 211.354 33.1805 211.354H64.2156C69.4124 211.354 74.2144 214.126 76.8128 218.627L92.3303 245.504C94.9287 250.004 94.9287 255.549 92.3303 260.05ZM95.0297 243.945C98.1849 249.41 98.1849 256.143 95.0297 261.608L79.5122 288.486C76.357 293.951 70.526 297.317 64.2156 297.317H33.1805C26.8702 297.317 21.0391 293.951 17.8839 288.486L2.36639 261.608C-0.788798 256.143 -0.788798 249.41 2.36639 243.945L17.8839 217.068C21.0391 211.603 26.8702 208.237 33.1805 208.237H64.2156C70.526 208.237 76.357 211.603 79.5122 217.068L95.0297 243.945Z" fill="url(#paint0_linear_1107_48282)"/>
<defs>
<linearGradient id="paint0_linear_1107_48282" x1="262.213" y1="0.436096" x2="18.1139" y2="266.889" gradientUnits="userSpaceOnUse">
<stop stop-color="#7B00FF" stop-opacity="0.15"/>
<stop offset="0.185" stop-color="#7B00FF" stop-opacity="0.05"/>
<stop offset="0.779757" stop-color="#7B00FF" stop-opacity="0.25"/>
<stop offset="1" stop-color="#7B00FF" stop-opacity="0.1"/>
</linearGradient>
</defs>
</svg>
